<svg width="32" height="32" viewBox="0 0 32 32" fill="none" xmlns="http://www.w3.org/2000/svg">
<path d="M0.5 16C0.5 7.43698 7.43698 0.5 16 0.5C24.563 0.5 31.5 7.43698 31.5 16C31.5 24.563 24.5631 31.4999 16.0002 31.5C7.43615 31.4814 0.5 24.5435 0.5 16Z" stroke="#00A6F1" stroke-opacity="0.4"/>
<path d="M21.5495 11.0333C20.4933 10.5462 19.3937 10.1919 18.2507 10C18.106 10.2657 17.9468 10.6052 17.8311 10.8857C16.6157 10.6938 15.3859 10.6938 14.1705 10.8857C14.0403 10.5757 13.8956 10.2805 13.7365 10C12.5935 10.1919 11.4794 10.5462 10.4377 11.0481C8.35419 14.222 7.78991 17.3072 8.06482 20.363C9.29464 21.293 10.6547 22.0016 12.116 22.4444C12.4488 21.9868 12.7381 21.5144 12.9841 21.0125C12.5066 20.8354 12.0581 20.6139 11.6241 20.3482C11.7398 20.2597 11.8411 20.1711 11.9568 20.0825C14.5178 21.3225 17.4983 21.3225 20.0592 20.0825C20.175 20.1711 20.2762 20.2597 20.392 20.3482C19.9579 20.6139 19.4949 20.8354 19.0175 21.0125C19.2634 21.5144 19.5528 21.9868 19.8856 22.4444C21.3469 21.9868 22.7214 21.293 23.9368 20.363C24.2551 16.8201 23.358 13.7496 21.5495 11.0333ZM13.3314 18.4734C12.5356 18.4734 11.899 17.7353 11.899 16.8348C11.899 15.9344 12.5356 15.1815 13.3314 15.1815C14.1416 15.1815 14.7782 15.9196 14.7782 16.8348C14.7637 17.7353 14.1416 18.4734 13.3314 18.4734ZM18.6558 18.4734C17.86 18.4734 17.2234 17.7353 17.2234 16.8348C17.2234 15.9344 17.86 15.1815 18.6558 15.1815C19.466 15.1815 20.1026 15.9196 20.0882 16.8348C20.0737 17.7501 19.4515 18.4734 18.6558 18.4734Z" fill="white"/>
</svg>
