<svg width="32" height="32" viewBox="0 0 32 32" fill="none" xmlns="http://www.w3.org/2000/svg">
<path d="M0.5 16C0.5 7.43698 7.43698 0.5 16 0.5C24.563 0.5 31.5 7.43698 31.5 16C31.5 24.563 24.5631 31.4999 16.0002 31.5C7.43615 31.4814 0.5 24.5435 0.5 16Z" stroke="#00A6F1" stroke-opacity="0.4"/>
<path d="M16 10.2623C17.869 10.2623 18.0907 10.2693 18.8292 10.3032C20.7273 10.3895 21.6117 11.289 21.6992 13.172C21.7318 13.9105 21.7388 14.131 21.7388 16C21.7388 17.869 21.7318 18.0907 21.6992 18.828C21.6117 20.7098 20.7285 21.6117 18.8292 21.698C18.0907 21.7307 17.8702 21.7388 16 21.7388C14.131 21.7388 13.9093 21.7318 13.172 21.698C11.2703 21.6105 10.3895 20.7075 10.302 18.828C10.2693 18.0907 10.2612 17.869 10.2612 16C10.2612 14.131 10.2693 13.9093 10.302 13.172C10.3883 11.2878 11.2727 10.3883 13.172 10.302C13.9093 10.2682 14.131 10.2623 16 10.2623ZM16 9C14.0983 9 13.8615 9.00817 13.1137 9.04317C10.5703 9.15983 9.15867 10.5703 9.042 13.1137C9.00817 13.8615 9 14.0995 9 16C9 17.9017 9.00817 18.1397 9.042 18.8863C9.15867 21.4285 10.5703 22.8413 13.1137 22.958C13.8615 22.9918 14.0983 23 16 23C17.9017 23 18.1397 22.9918 18.8875 22.958C21.4262 22.8413 22.8437 21.4308 22.958 18.8863C22.9918 18.1397 23 17.9017 23 16C23 14.0995 22.9918 13.8615 22.958 13.1137C22.8437 10.5738 21.4308 9.15867 18.8875 9.04317C18.1397 9.00817 17.9017 9 16 9ZM16 12.4055C14.0155 12.4055 12.4055 14.0143 12.4055 16C12.4055 17.9857 14.0155 19.5945 16 19.5945C17.9845 19.5945 19.5945 17.9857 19.5945 16C19.5945 14.0155 17.9845 12.4055 16 12.4055ZM16 18.3333C14.7108 18.3333 13.6667 17.2892 13.6667 16C13.6667 14.712 14.7108 13.6667 16 13.6667C17.288 13.6667 18.3345 14.7108 18.3345 16C18.3345 17.2892 17.288 18.3333 16 18.3333ZM19.7357 11.4243C19.2725 11.4243 18.8957 11.8 18.8957 12.2643C18.8957 12.7275 19.2713 13.1043 19.7357 13.1043C20.2 13.1043 20.5768 12.7287 20.5768 12.2643C20.5768 11.8 20.2012 11.4243 19.7357 11.4243Z" fill="white"/>
</svg>
