<svg width="32" height="32" viewBox="0 0 32 32" fill="none" xmlns="http://www.w3.org/2000/svg">
<path d="M0.5 16C0.5 7.43698 7.43698 0.5 16 0.5C24.563 0.5 31.5 7.43698 31.5 16C31.5 24.563 24.5631 31.4999 16.0002 31.5C7.43615 31.4814 0.5 24.5435 0.5 16Z" stroke="#00A6F1" stroke-opacity="0.4"/>
<path d="M23 11.4205C22.4849 11.6615 21.9313 11.8243 21.3504 11.8975C21.9433 11.5226 22.3988 10.9289 22.6132 10.2215C22.0582 10.5687 21.4435 10.8208 20.7893 10.9566C20.2654 10.3678 19.5189 10 18.6928 10C17.1066 10 15.8204 11.3563 15.8204 13.0293C15.8204 13.2668 15.8458 13.498 15.8948 13.7197C13.5077 13.5934 11.3913 12.3873 9.97466 10.5545C9.72742 11.0019 9.58574 11.5222 9.58574 12.0774C9.58574 13.1285 10.0928 14.0557 10.8635 14.599C10.3927 14.5832 9.94981 14.4469 9.56257 14.2201C9.56224 14.2327 9.56224 14.2454 9.56224 14.2582C9.56224 15.7259 10.5523 16.9502 11.8663 17.2287C11.6253 17.298 11.3715 17.335 11.1096 17.335C10.9245 17.335 10.7446 17.3159 10.5692 17.2806C10.9347 18.4841 11.9954 19.36 13.2524 19.3843C12.2694 20.1969 11.0309 20.6812 9.68516 20.6812C9.45332 20.6812 9.2247 20.6668 9 20.6389C10.2711 21.4985 11.7809 22 13.4029 22C18.6861 22 21.5752 17.3839 21.5752 13.3805C21.5752 13.2492 21.5724 13.1186 21.5668 12.9886C22.128 12.5615 22.6149 12.028 23 11.4205H23Z" fill="white"/>
</svg>
