<svg width="56" height="56" viewBox="0 0 56 56" fill="none" xmlns="http://www.w3.org/2000/svg">
<path d="M9.33325 28C9.33325 17.6877 17.6876 9.33334 27.9999 9.33334C38.3123 9.33334 46.6666 17.6877 46.6666 28C46.6666 38.3124 38.3123 46.6667 27.9999 46.6667C17.6876 46.6449 9.33325 38.2906 9.33325 28Z" fill="#00A6F1"/>
<path opacity="0.5" d="M0.5 28C0.5 12.8076 12.8076 0.5 28 0.5C43.1924 0.5 55.5 12.8076 55.5 28C55.5 43.192 43.193 55.4994 28.0011 55.5C12.8073 55.4679 0.5 43.1592 0.5 28Z" stroke="#00A6F1" stroke-opacity="0.5"/>
<path d="M35.2837 21.1896C33.8974 20.5502 32.4542 20.0852 30.954 19.8333C30.7641 20.1821 30.5552 20.6277 30.4033 20.9959C28.8081 20.744 27.194 20.744 25.5988 20.9959C25.4279 20.589 25.238 20.2015 25.0291 19.8333C23.5289 20.0852 22.0667 20.5502 20.6994 21.209C17.9649 25.3747 17.2243 29.4241 17.5851 33.4348C19.1992 34.6554 20.9843 35.5854 22.9022 36.1667C23.339 35.566 23.7188 34.946 24.0416 34.2873C23.415 34.0548 22.8263 33.7641 22.2566 33.4154C22.4085 33.2991 22.5414 33.1829 22.6934 33.0666C26.0546 34.6942 29.9665 34.6942 33.3277 33.0666C33.4796 33.1829 33.6126 33.2991 33.7645 33.4154C33.1948 33.7641 32.5871 34.0548 31.9604 34.2873C32.2833 34.946 32.6631 35.566 33.0998 36.1667C35.0178 35.566 36.8219 34.6554 38.417 33.4348C38.8348 28.7847 37.6574 24.7547 35.2837 21.1896ZM24.4974 30.9547C23.453 30.9547 22.6174 29.986 22.6174 28.8041C22.6174 27.6222 23.453 26.6341 24.4974 26.6341C25.5608 26.6341 26.3964 27.6028 26.3964 28.8041C26.3774 29.986 25.5608 30.9547 24.4974 30.9547ZM31.4857 30.9547C30.4412 30.9547 29.6057 29.986 29.6057 28.8041C29.6057 27.6222 30.4412 26.6341 31.4857 26.6341C32.5491 26.6341 33.3847 27.6028 33.3657 28.8041C33.3467 30.0053 32.5301 30.9547 31.4857 30.9547Z" fill="white"/>
</svg>
